<svg id="Icons" height="512" viewBox="0 0 74 74" width="512" xmlns="http://www.w3.org/2000/svg"><path d="m44.831 64.339h-39.472a1 1 0 0 1 -1-1v-14.354a11.2 11.2 0 0 1 11.179-11.185h32.342a11.161 11.161 0 0 1 11.026 9.277 1 1 0 0 1 -1.971.34 9.165 9.165 0 0 0 -9.055-7.617h-32.342a9.2 9.2 0 0 0 -9.179 9.189v13.35h38.472a1 1 0 0 1 0 2z"/><path d="m31.367 29.724a13.862 13.862 0 1 1 13.862-13.862 13.878 13.878 0 0 1 -13.862 13.862zm0-25.724a11.862 11.862 0 1 0 11.862 11.862 11.875 11.875 0 0 0 -11.862-11.862z"/><path d="m45.606 64.339h-28.124a1 1 0 0 1 -1-1v-10.731a1 1 0 0 1 2 0v9.731h27.124a1 1 0 0 1 0 2z"/><path d="m56.731 72a12.909 12.909 0 1 1 12.91-12.91 12.924 12.924 0 0 1 -12.91 12.91zm0-23.819a10.909 10.909 0 1 0 10.91 10.909 10.922 10.922 0 0 0 -10.91-10.909z"/><path d="m54.453 63.707a1 1 0 0 1 -.707-.293l-2.676-2.676a1 1 0 0 1 1.414-1.414l1.969 1.969 6.526-6.526a1 1 0 0 1 1.414 1.414l-7.233 7.233a1 1 0 0 1 -.707.293z"/></svg>